<svg width="40" height="32" viewBox="0 0 40 32" fill="none" xmlns="http://www.w3.org/2000/svg">
<rect width="40" height="32" rx="10" fill="#FC2929" fill-opacity="0.2"/>
<path d="M15.7408 15.3044C17.178 15.3044 17.8479 14.8035 18.7004 14.2922C19.6261 13.7392 21.0024 13.3426 22.0498 13.76C22.5126 13.9374 23.9254 14.2922 24.4857 14.2922C25.7036 14.2922 27.0678 13.3635 26.9094 11.9026C26.6049 9.13741 23.4504 6.95654 19.6139 6.95654C15.7774 6.95654 12.696 9.08524 12.3306 11.8192C12.1113 13.4783 13.4876 15.3044 15.7408 15.3044ZM16.569 10.087C17.5799 10.087 18.396 10.7861 18.396 11.6522C18.396 12.5183 17.5799 13.2174 16.569 13.2174C15.5581 13.2174 14.7421 12.5183 14.7421 11.6522C14.7421 10.7861 15.5581 10.087 16.569 10.087Z" fill="#FC2929"/>
<path d="M31.9934 13.2279C32.0177 12.9462 32.0177 12.654 31.9934 12.3723C31.4818 6.99837 26.1594 2.78271 19.8504 2.78271C13.5414 2.78271 8.34079 6.83141 7.73182 12.1949C7.6831 12.654 7.6831 13.1027 7.73182 13.5514V16.3688C7.3299 19.9271 10.0337 23.0992 13.8825 23.5792C14.8945 23.7134 15.9282 23.6638 16.9164 23.4337C17.9047 23.2036 18.8254 22.7982 19.619 22.2436C20.5934 21.5549 21.9209 21.461 23.078 21.9931C23.9671 22.4001 24.978 22.5671 25.9767 22.6088C27.5235 22.6088 28.9972 22.0245 30.1299 20.981C31.4696 19.7288 32.1761 17.9758 32.0177 16.3584L32.0543 13.2279H32.0177H31.9934ZM19.8504 4.86967C24.8927 4.86967 29.1555 8.24011 29.5575 12.5392C29.6549 13.5827 29.2408 14.6471 28.4491 15.3775C27.9741 15.8158 27.1581 16.3479 25.9402 16.3479C25.2946 16.3897 24.7466 16.2227 24.2107 15.9723C22.1767 15.0331 19.8139 15.221 18.06 16.4418C16.9882 17.1931 15.6241 17.5166 14.2357 17.3392C12.019 17.0575 10.3869 15.3984 10.1677 13.374V12.3514C10.407 10.2934 11.5327 8.38554 13.3253 7.00026C15.1178 5.61498 17.4486 4.85165 19.8626 4.85924L19.8504 4.86967ZM25.9523 20.5218C25.3434 20.5218 24.7587 20.3966 24.2228 20.1462C22.1889 19.2071 19.8261 19.3845 18.0722 20.6158C17.0004 21.3671 15.6363 21.6801 14.2478 21.5132C12.2017 21.2523 10.6549 19.8018 10.2652 17.934C11.2639 18.7062 12.5062 19.2279 13.8946 19.4053C14.9067 19.5395 15.9403 19.4899 16.9286 19.2598C17.9168 19.0297 18.8376 18.6242 19.6312 18.0697C20.6055 17.381 21.9331 17.2871 23.0902 17.8192C23.9793 18.2262 24.9902 18.414 25.9889 18.4349C27.2921 18.4349 28.5222 18.0384 29.5453 17.3497C29.3991 18.174 28.985 18.9671 28.3395 19.5618C27.8767 20.0001 27.085 20.5218 25.9767 20.5218H25.9523Z" fill="#FC2929"/>
</svg>
