<svg width="40" height="32" viewBox="0 0 40 32" fill="none" xmlns="http://www.w3.org/2000/svg">
<rect width="40" height="32" rx="10" fill="#5EE3F2" fill-opacity="0.2"/>
<path d="M16.2188 20.825L19.5 18.925L22.7813 20.85L21.9219 17.25L24.8125 14.85L21.0105 14.525L19.5 11.125L17.9896 14.5L14.1875 14.825L17.0782 17.25L16.2188 20.825ZM13.0677 25L14.7605 17.975L9.08337 13.25L16.5834 12.625L19.5 6L22.4167 12.625L29.9167 13.25L24.2396 17.975L25.9323 25L19.5 21.275L13.0677 25ZM24.9688 11L25.5157 8.775L23.6667 7.3L26.1146 7.1L27.0521 5L27.9896 7.1L30.4375 7.3L28.5886 8.775L29.1355 11L27.0521 9.825L24.9688 11Z" fill="#5EE3F2"/>
</svg>
