<svg width="40" height="32" viewBox="0 0 40 32" fill="none" xmlns="http://www.w3.org/2000/svg">
<rect width="40" height="32" rx="10" fill="#FF00D0" fill-opacity="0.2"/>
<path fill-rule="evenodd" clip-rule="evenodd" d="M23.1612 5.34755C23.3309 5.47645 23.4263 5.65119 23.4263 5.83338C23.4263 6.01557 23.3309 6.19031 23.1612 6.31921C22.6586 6.70177 22.2075 7.1051 21.8079 7.52921L23.2664 8.63563C23.4264 8.76596 23.5136 8.93833 23.5094 9.11644C23.5053 9.29455 23.4102 9.46449 23.2442 9.59045C23.0781 9.71641 22.8541 9.78856 22.6193 9.79171C22.3845 9.79485 22.1573 9.72874 21.9855 9.6073L20.84 8.7383C20.5855 9.11841 20.37 9.50524 20.1936 9.8988L26.089 14.3703C26.1313 14.4041 26.17 14.4402 26.205 14.4785C26.7039 14.3494 27.1911 14.1957 27.6635 14.0183L24.0288 11.26C23.9398 11.1971 23.8684 11.1212 23.8188 11.0369C23.7693 10.9525 23.7427 10.8615 23.7405 10.7692C23.7384 10.6769 23.7608 10.5852 23.8063 10.4996C23.8519 10.414 23.9198 10.3362 24.0058 10.2709C24.0919 10.2056 24.1944 10.1542 24.3072 10.1196C24.4201 10.085 24.5409 10.068 24.6626 10.0697C24.7843 10.0713 24.9043 10.0915 25.0155 10.1291C25.1266 10.1667 25.2267 10.2208 25.3097 10.2884L29.2682 13.2905C29.8562 12.9776 30.4145 12.6213 30.9429 12.2216C31.0259 12.1541 31.1259 12.0999 31.2371 12.0623C31.3482 12.0248 31.4683 12.0045 31.5899 12.0029C31.7116 12.0013 31.8325 12.0183 31.9453 12.0529C32.0582 12.0874 32.1607 12.1389 32.2467 12.2042C32.3328 12.2695 32.4006 12.3472 32.4462 12.4328C32.4918 12.5184 32.5142 12.6101 32.512 12.7024C32.5099 12.7948 32.4833 12.8858 32.4337 12.9701C32.3842 13.0545 32.3128 13.1304 32.2237 13.1933C29.0555 15.5977 24.6547 16.7261 20.6769 16.1385C21.5832 19.049 20.1936 22.3205 17.1196 24.6516C17.0366 24.7192 16.9366 24.7734 16.8254 24.8109C16.7142 24.8485 16.5942 24.8687 16.4725 24.8703C16.3509 24.872 16.23 24.855 16.1171 24.8204C16.0043 24.7858 15.9018 24.7344 15.8157 24.6691C15.7297 24.6038 15.6618 24.526 15.6163 24.4404C15.5707 24.3548 15.5483 24.2631 15.5504 24.1708C15.5526 24.0785 15.5792 23.9875 15.6287 23.9031C15.6783 23.8188 15.7497 23.7429 15.8387 23.68C16.3552 23.2867 16.8236 22.8587 17.238 22.4012L15.6019 21.161C15.5154 21.0975 15.4464 21.0216 15.399 20.9377C15.3515 20.8538 15.3266 20.7636 15.3256 20.6723C15.3246 20.581 15.3476 20.4905 15.3932 20.406C15.4388 20.3216 15.5062 20.2448 15.5913 20.1803C15.6764 20.1158 15.7776 20.0648 15.889 20.0303C16.0004 19.9957 16.1198 19.9784 16.2401 19.9792C16.3604 19.98 16.4793 19.9991 16.5899 20.0351C16.7004 20.0712 16.8004 20.1236 16.8839 20.1893L18.1684 21.1628C18.3932 20.7925 18.5796 20.4172 18.7279 20.0371L18.6699 19.9968L12.8542 15.5867C12.3225 15.7059 11.7981 15.8584 11.2809 16.0441L14.7017 18.6383C14.8719 18.7671 14.9676 18.942 14.9678 19.1244C14.968 19.3068 14.8728 19.4818 14.7029 19.6109C14.5331 19.74 14.3026 19.8126 14.0621 19.8128C13.8217 19.8129 13.591 19.7406 13.4209 19.6118L9.66053 16.7582C9.09664 17.0564 8.56175 17.3962 8.05586 17.7775C7.88407 17.899 7.65684 17.9651 7.42206 17.962C7.18728 17.9588 6.96327 17.8867 6.79723 17.7607C6.63119 17.6347 6.53608 17.4648 6.53194 17.2867C6.5278 17.1086 6.61495 16.9362 6.77503 16.8059C9.84782 14.4739 14.1604 13.4206 17.9968 14.1072C17.2235 11.0895 18.7097 7.75105 21.8792 5.34755C22.0491 5.2188 22.2795 5.14648 22.5196 5.14648C22.7598 5.14648 22.9913 5.2188 23.1612 5.34755ZM24.1509 14.846L19.7042 11.4709C19.5121 12.5434 19.616 13.6104 20.0317 14.5985C21.3342 14.9139 22.7407 14.9927 24.1545 14.847M18.6928 15.8755C19.0541 16.6702 19.1919 17.5255 19.1194 18.3935L15.0304 15.2915C16.1747 15.2365 17.302 15.341 18.3497 15.6151L18.6058 15.6811L18.6928 15.8755Z" fill="#FF00D0"/>
</svg>
