<svg width="40" height="32" viewBox="0 0 40 32" fill="none" xmlns="http://www.w3.org/2000/svg">
<rect width="40" height="32" rx="10" fill="#FCA029" fill-opacity="0.2"/>
<path d="M14.502 22.3752C13.1673 21.0696 12.5 19.4446 12.5 17.5002C12.5 16.6391 12.7042 15.7779 13.1125 14.9168C13.5208 14.0557 14.0312 13.2293 14.6437 12.4377C15.2562 11.646 15.9198 10.903 16.6344 10.2085C17.349 9.51406 18.0125 8.90989 18.625 8.39601C18.7417 8.28489 18.8767 8.20517 19.0301 8.15684C19.1835 8.10851 19.3402 8.08406 19.5 8.08351C19.6598 8.08295 19.8168 8.10739 19.9707 8.15684C20.1248 8.20628 20.2595 8.28601 20.375 8.39601C20.9875 8.90989 21.651 9.51406 22.3656 10.2085C23.0802 10.903 23.7437 11.646 24.3562 12.4377C24.9687 13.2293 25.4792 14.0557 25.8875 14.9168C26.2958 15.7779 26.5 16.6391 26.5 17.5002C26.5 19.4446 25.833 21.0696 24.4989 22.3752C23.1648 23.6807 21.4985 24.3335 19.5 24.3335C17.5015 24.3335 15.8355 23.6807 14.502 22.3752ZM23.2625 21.1985C24.2542 20.2191 24.75 18.9863 24.75 17.5002C24.75 16.4863 24.3087 15.3404 23.4261 14.0627C22.5435 12.7849 21.2348 11.3891 19.5 9.87517C17.7646 11.3891 16.4559 12.7849 15.5739 14.0627C14.6919 15.3404 14.2506 16.4863 14.25 17.5002C14.25 18.9863 14.7458 20.2191 15.7375 21.1985C16.7292 22.178 17.9833 22.6674 19.5 22.6668C21.0167 22.6663 22.2708 22.1766 23.2625 21.1977M19.7406 21.8335C19.9156 21.8196 20.0652 21.7535 20.1895 21.6352C20.3138 21.5168 20.3756 21.3746 20.375 21.2085C20.375 21.0141 20.3094 20.8579 20.1781 20.7402C20.0469 20.6224 19.8792 20.5702 19.675 20.5835C19.0771 20.6252 18.4427 20.4691 17.7719 20.1152C17.101 19.7613 16.6781 19.1188 16.5031 18.1877C16.474 18.0349 16.3975 17.9099 16.2739 17.8127C16.1502 17.7155 16.0079 17.6668 15.8469 17.6668C15.6427 17.6668 15.475 17.7399 15.3438 17.886C15.2125 18.0321 15.1687 18.2021 15.2125 18.396C15.4604 19.6599 16.0438 20.5627 16.9625 21.1043C17.8813 21.646 18.8073 21.8891 19.7406 21.8335Z" fill="#FCA029"/>
</svg>
