<svg width="40" height="33" viewBox="0 0 40 33" fill="none" xmlns="http://www.w3.org/2000/svg">
<rect width="40" height="33" rx="10" fill="#A600FF" fill-opacity="0.2"/>
<path d="M12.5 15.9609C12.5 18.4166 12.8885 20.1718 14.4443 22.2768C15.6264 23.6994 17.2058 24.0557 18.8893 23.059C19.262 22.8468 19.738 22.8468 20.1116 23.059C21.7943 24.0565 23.3736 23.6994 24.5557 22.2768C26.1115 20.171 26.5 18.4166 26.5 15.9617C26.5 13.855 24.7587 11.75 22.6115 11.75C21.5029 11.75 20.5028 12.2986 19.794 12.89C19.7135 12.9561 19.6087 12.9927 19.5 12.9927C19.3913 12.9927 19.2865 12.9561 19.206 12.89C18.4981 12.2994 17.4971 11.75 16.3885 11.75C14.2413 11.75 12.5 13.8558 12.5 15.9609Z" stroke="#A600FF" stroke-linecap="round" stroke-linejoin="round"/>
<path d="M15.125 16.5C15.125 15.3363 15.5222 14.6475 16.4375 14.125M19.5 12.5417C19.5 11.5917 20.2586 9.375 22.125 9.375" stroke="#A600FF" stroke-linecap="round" stroke-linejoin="round"/>
</svg>
