<svg width="24" height="23" viewBox="0 0 24 23" fill="none" xmlns="http://www.w3.org/2000/svg">
<path d="M9.06739 2.02696C9.99395 -0.675916 13.8166 -0.675915 14.7432 2.02697L15.5884 4.49257C16.0041 5.70521 17.1443 6.51973 18.4263 6.51973H20.805C23.7499 6.51973 24.9319 10.3203 22.5065 11.9905L20.8635 13.122C19.7553 13.8851 19.2907 15.2928 19.7271 16.5656L20.419 18.5842C21.3569 21.3201 18.2617 23.6682 15.8797 22.0278L13.6068 20.4626C12.5822 19.7571 11.2284 19.7571 10.2038 20.4626L7.93087 22.0278C5.54886 23.6682 2.45362 21.3201 3.3915 18.5842L4.08347 16.5656C4.51981 15.2928 4.05528 13.8851 2.94708 13.122L1.30407 11.9905C-1.12139 10.3203 0.0606293 6.51973 3.00557 6.51973H5.38428C6.6662 6.51973 7.80647 5.70521 8.22217 4.49257L9.06739 2.02696Z" fill="#F8BE00"/>
</svg>
