<svg width="20" height="21" viewBox="0 0 20 21" fill="none" xmlns="http://www.w3.org/2000/svg">
<path d="M8.75273 21C8.39948 21 8.10359 20.874 7.86504 20.622C7.6265 20.37 7.50681 20.0585 7.50598 19.6875V11.8125L0.274804 2.1C-0.0368848 1.6625 -0.0834302 1.20312 0.135167 0.721875C0.353765 0.240625 0.732778 0 1.27221 0H18.7268C19.267 0 19.6464 0.240625 19.865 0.721875C20.0836 1.20312 20.0367 1.6625 19.7242 2.1L12.493 11.8125V19.6875C12.493 20.0594 12.3733 20.3713 12.1339 20.6233C11.8945 20.8753 11.5987 21.0009 11.2462 21H8.75273Z" fill="white"/>
</svg>
